<?xml version="1.0" encoding="UTF-8" standalone="no"?>
<!-- Created with Inkscape (http://www.inkscape.org/) -->

<svg
   version="1.1"
   id="svg1"
   width="926.40845"
   height="575.74951"
   viewBox="0 0 926.40842 575.74953"
   sodipodi:docname="free_svg_cloud_28072050.png"
   xmlns:inkscape="http://www.inkscape.org/namespaces/inkscape"
   xmlns:sodipodi="http://sodipodi.sourceforge.net/DTD/sodipodi-0.dtd"
   xmlns="http://www.w3.org/2000/svg"
   xmlns:svg="http://www.w3.org/2000/svg">
  <defs
     id="defs1" />
  <sodipodi:namedview
     id="namedview1"
     pagecolor="#ffffff"
     bordercolor="#999999"
     borderopacity="1"
     inkscape:showpageshadow="0"
     inkscape:pageopacity="0"
     inkscape:pagecheckerboard="0"
     inkscape:deskcolor="#d1d1d1" />
  <g
     inkscape:groupmode="layer"
     inkscape:label="Image"
     id="g1"
     transform="translate(-433.13917,-274.07277)">
    <path
       style="fill:#ffffff"
       d="m 559.50516,847.91874 c -49.07722,-8.25876 -92.7465,-45.0111 -112.78678,-94.92204 -5.84977,-14.56903 -10.43093,-32.88996 -12.20705,-48.81833 -1.84951,-16.58652 -1.82526,-48.97562 0.0481,-64.26254 3.98295,-32.50143 17.47573,-60.60898 40.61977,-84.61724 22.33901,-23.17319 50.62798,-38.28091 80.02093,-42.73518 13.88691,-2.10445 16.54712,-3.22187 16.55126,-6.95232 0.008,-7.03023 7.24776,-29.41615 13.97152,-43.19994 24.21946,-49.65018 70.53041,-82.10842 126.42204,-88.60616 21.25514,-2.47104 45.71658,0.21173 66.3794,7.28006 9.23508,3.15913 10.00191,3.23248 11.57401,1.10704 0.92602,-1.25194 6.0824,-8.27625 11.45863,-15.60958 72.39019,-98.7423 210.20931,-121.97763 311.52441,-52.52083 24.4869,16.78704 43.3263,35.99617 60.7074,61.89883 23.6724,35.27849 35.9578,73.92095 37.5842,118.21729 l 0.7684,20.92862 7.47,0.76646 c 24.3774,2.50124 40.4938,6.85755 58.1367,15.71444 15.6741,7.86859 25.286,14.82659 38.1236,27.59764 21.0772,20.96779 34.784,46.35874 40.702,75.39753 4.8004,23.55494 3.6372,69.27506 -2.3914,94 -13.2106,54.1797 -51.257,97.45283 -100.4342,114.23169 -21.7042,7.4053 -6.0691,7.10191 -358.66672,6.95957 -259.34869,-0.10469 -327.41083,-0.48093 -335.57622,-1.85501 z"
       id="path1"
       sodipodi:nodetypes="sssssscsssssssscssssssss" />
  </g>
</svg>
